<mxfile host="app.diagrams.net" modified="2023-05-13T08:45:39.652Z" agent="Mozilla/5.0 (Windows NT 10.0; Win64; x64) AppleWebKit/537.36 (KHTML, like Gecko) Chrome/113.0.0.0 Safari/537.36 Edg/113.0.1774.42" version="21.3.0" etag="lNaIqpaHOl4dZXMY-EQ-" type="github">
  <diagram name="Page-1" id="GKaFxHwM3PYECo6i_Yxy">
    <mxGraphModel>
      <root>
        <mxCell id="0" />
        <mxCell id="1" parent="0" />
      </root>
    </mxGraphModel>
  </diagram>
</mxfile>
